<?xml version="1.0" encoding="utf-8"?>
<!-- Generator: Adobe Illustrator 18.0.0, SVG Export Plug-In . SVG Version: 6.00 Build 0)  -->
<!DOCTYPE svg PUBLIC "-//W3C//DTD SVG 1.1//EN" "http://www.w3.org/Graphics/SVG/1.1/DTD/svg11.dtd">
<svg version="1.1" id="Layer_1" xmlns="http://www.w3.org/2000/svg" xmlns:xlink="http://www.w3.org/1999/xlink" x="0px" y="0px"
	 viewBox="0 0 19.5 14.1" enable-background="new 0 0 19.5 14.1" xml:space="preserve">
<g>
	<circle cx="4.2" cy="12.6" r="1.5"/>
	<circle cx="11.3" cy="12.6" r="1.5"/>
	<path d="M18.8,0h-2.1c-0.1,0-0.2,0-0.3,0l-1.8,1H0.9C0.2,1-0.1,1.5,0,2.1l2.1,6.7C2.3,9.4,3,10,3.6,10h8.1c0.6,0,1.3-0.6,1.5-1.2
		l2.1-6.6c0-0.1,0-0.2,0.1-0.3l1.6-1h1.9c0.4,0,0.7-0.1,0.7-0.5C19.5,0.1,19.2,0,18.8,0z"/>
</g>
</svg>
