<?xml version="1.0" encoding="utf-8"?>
<!-- Generator: Adobe Illustrator 18.0.0, SVG Export Plug-In . SVG Version: 6.00 Build 0)  -->
<!DOCTYPE svg PUBLIC "-//W3C//DTD SVG 1.1//EN" "http://www.w3.org/Graphics/SVG/1.1/DTD/svg11.dtd">
<svg version="1.1" id="Layer_1" xmlns="http://www.w3.org/2000/svg" xmlns:xlink="http://www.w3.org/1999/xlink" x="0px" y="0px"
	 viewBox="0 0 16.1 16.1" enable-background="new 0 0 16.1 16.1" xml:space="preserve">
<g>
	<path d="M9.3,0C5.5,0,2.4,3.1,2.4,6.8c0,1.5,0.5,2.9,1.4,4.1L0,14.7l1.4,1.4l3.8-3.8c1.1,0.8,2.5,1.4,4.1,1.4
		c3.8,0,6.8-3.1,6.8-6.8C16.1,3.1,13,0,9.3,0z M9.3,11.7c-2.7,0-4.8-2.2-4.8-4.8S6.6,2,9.3,2s4.8,2.2,4.8,4.8S11.9,11.7,9.3,11.7z"
		/>
</g>
</svg>
